<svg xmlns="http://www.w3.org/2000/svg" width="21.75" height="16.08" viewBox="0 0 21.75 16.08">
  <path id="person_remove_FILL0_wght400_GRAD0_opsz48" d="M17.743,15.139V13.585H23.75v1.554Zm-7.457,1.579A3.725,3.725,0,0,1,6.4,12.834,3.725,3.725,0,0,1,10.286,8.95a3.725,3.725,0,0,1,3.884,3.884,3.725,3.725,0,0,1-3.884,3.884ZM2,25.03V22.6a3.08,3.08,0,0,1,.453-1.644,2.744,2.744,0,0,1,1.308-1.1,19.844,19.844,0,0,1,3.457-1.2,13.6,13.6,0,0,1,3.068-.35,13.433,13.433,0,0,1,3.055.35,20,20,0,0,1,3.444,1.2,3,3,0,0,1,1.321,1.113,2.952,2.952,0,0,1,.466,1.631V25.03Zm1.554-1.554H17.018V22.6a1.475,1.475,0,0,0-.233-.79,1.433,1.433,0,0,0-.621-.557,15.3,15.3,0,0,0-3.107-1.126,13.229,13.229,0,0,0-2.771-.272,13.415,13.415,0,0,0-2.784.272,15.192,15.192,0,0,0-3.12,1.126,1.356,1.356,0,0,0-.608.557,1.538,1.538,0,0,0-.22.79Zm6.732-8.312a2.258,2.258,0,0,0,2.33-2.33,2.258,2.258,0,0,0-2.33-2.33,2.258,2.258,0,0,0-2.33,2.33,2.258,2.258,0,0,0,2.33,2.33ZM10.286,12.834ZM10.286,23.476Z" transform="translate(-2 -8.95)" fill="#1c1b1b"/>
</svg>
